<?xml version="1.0" encoding="iso-8859-1"?>
<!-- Generator: Adobe Illustrator 19.0.0, SVG Export Plug-In . SVG Version: 6.00 Build 0)  -->
<svg version="1.1" id="Capa_1" xmlns="http://www.w3.org/2000/svg" xmlns:xlink="http://www.w3.org/1999/xlink" x="0px" y="0px"
	 viewBox="0 0 512.001 512.001" style="enable-background:new 0 0 512.001 512.001;" xml:space="preserve" fill="#818181"> 
<g>
	<g>
		<path d="M467.939,304.532h-77.22v-82.367l61.132-61.13c5.858-5.858,5.858-15.355,0-21.213c-5.858-5.857-15.355-5.858-21.213,0
			l-59.848,59.846c-6.434-45.383-39.346-82.364-82.554-94.744l79.314-79.317c5.857-5.858,5.857-15.355,0-21.213
			c-5.857-5.858-15.355-5.858-21.213,0l-89.869,89.871L167.353,5.152c-5.857-5.858-15.355-5.858-21.213,0
			c-5.857,5.858-5.857,15.355,0.001,21.213l78.56,78.558c-43.207,12.38-76.118,49.359-82.554,94.74l-59.839-59.842
			c-5.858-5.857-15.355-5.858-21.213,0c-5.858,5.858-5.858,15.355,0,21.213l61.127,61.13v82.367h-78.16c-8.284,0-15,6.716-15,15
			s6.716,15,15,15h78.16v0.671c0,27.658,8.41,53.387,22.802,74.771l-76.421,76.421c-5.858,5.857-5.858,15.355,0,21.213
			c2.929,2.929,6.767,4.394,10.606,4.394c3.838,0,7.678-1.465,10.606-4.394l74.694-74.693c24.043,22.642,56.409,36.54,91.964,36.54
			c35.315,0,67.482-13.714,91.475-36.088l74.238,74.241c2.929,2.929,6.767,4.394,10.607,4.394c3.838,0,7.678-1.465,10.606-4.393
			c5.858-5.858,5.858-15.355,0-21.213l-75.859-75.863c14.623-21.493,23.18-47.43,23.18-75.329v-0.671h77.22c8.284,0,15-6.716,15-15
			C482.939,311.248,476.223,304.532,467.939,304.532z M241.472,438.371c-50.403-7.295-89.252-50.776-89.252-103.168V230.952h89.252
			V438.371z M172.336,200.952c7.114-40,42.119-70.474,84.132-70.474c42.012,0,77.017,30.475,84.131,70.474H172.336z
			 M360.719,335.202c0,52.392-38.847,95.872-89.247,103.168V230.952h89.247V335.202z"/>
	</g>
</g>
<g>
</g>
<g>
</g>
<g>
</g>
<g>
</g>
<g>
</g>
<g>
</g>
<g>
</g>
<g>
</g>
<g>
</g>
<g>
</g>
<g>
</g>
<g>
</g>
<g>
</g>
<g>
</g>
<g>
</g>
</svg>
