<svg width="1151" height="875" viewBox="0 0 1151 875" fill="none" xmlns="http://www.w3.org/2000/svg">
<rect width="553" height="97" rx="18" fill="#8A8A8A"/>
<rect y="28" width="523" height="83" rx="18" fill="#A5A5A5"/>
<rect y="70" width="1151" height="805" rx="26" fill="#6D6D6D"/>
<rect width="273.327" height="20.3863" rx="10.1931" transform="matrix(0.735291 -0.677751 0.735291 0.677751 247 416.248)" fill="#C7C7C7"/>
<rect width="273.327" height="20.3863" rx="10.1931" transform="matrix(-0.735291 -0.677751 0.735291 -0.677751 447.975 430.065)" fill="#C7C7C7"/>
<rect width="273.327" height="20.3863" rx="10.1931" transform="matrix(0.735291 -0.677751 0.735291 0.677751 689.035 416.248)" fill="#C7C7C7"/>
<rect width="273.327" height="20.3863" rx="10.1931" transform="matrix(-0.735291 -0.677751 0.735291 -0.677751 890.01 430.065)" fill="#C7C7C7"/>
<path d="M981 700.5C989.284 700.5 996.173 693.631 993.555 685.771C983.301 654.985 941.125 626.083 873.278 603.98C794.7 578.381 688.126 564 577 564C465.874 564 359.3 578.381 280.722 603.98C212.875 626.083 170.699 654.985 160.445 685.771C157.827 693.631 164.716 700.5 173 700.5H199.776C208.061 700.5 214.608 693.582 217.578 685.848C227.523 659.953 263.627 635.707 320.869 617.059C388.799 594.929 480.932 582.496 577 582.496C673.068 582.496 765.201 594.929 833.131 617.059C890.373 635.707 926.477 659.954 936.422 685.848C939.392 693.582 945.939 700.5 954.224 700.5H981Z" fill="#C7C7C7"/>
</svg>
