<svg width="1151" height="875" viewBox="0 0 1151 875" fill="none" xmlns="http://www.w3.org/2000/svg">
<rect width="553" height="97" rx="18" fill="#8A8A8A"/>
<rect y="28" width="523" height="83" rx="18" fill="#A5A5A5"/>
<rect y="70" width="1151" height="805" rx="26" fill="#6D6D6D"/>
<path d="M980 578.5C988.284 578.5 995.173 585.369 992.555 593.229C982.301 624.015 940.125 652.917 872.278 675.02C793.7 700.619 687.126 715 576 715C464.874 715 358.3 700.619 279.722 675.02C211.875 652.917 169.699 624.015 159.445 593.229C156.827 585.369 163.716 578.5 172 578.5L198.776 578.5C207.061 578.5 213.608 585.418 216.578 593.152C226.523 619.047 262.627 643.293 319.869 661.941C387.799 684.071 479.932 696.504 576 696.504C672.068 696.504 764.201 684.071 832.131 661.941C889.373 643.293 925.477 619.046 935.422 593.152C938.392 585.418 944.939 578.5 953.224 578.5H980Z" fill="#C7C7C7"/>
<rect x="298" y="277" width="65" height="205" rx="18" fill="#C4C4C4"/>
<rect x="789" y="268" width="65" height="205" rx="18" fill="#C4C4C4"/>
</svg>
