<svg fill="#818181" id="Capa_1" enable-background="new 0 0 512 512" height="512" viewBox="0 0 512 512" width="512" xmlns="http://www.w3.org/2000/svg"><path d="m479.11 372.86c-9.404-6.56-21.755-16.594-32.04-29.754 41.431-37.578 64.93-88.541 64.93-141.79 0-54.098-23.502-104.858-66.176-142.932-42.192-37.643-98.178-58.375-157.642-58.375s-115.45 20.731-157.643 58.375c-42.674 38.073-66.176 88.834-66.176 142.932 0 6.766.368 13.48 1.095 20.124-39.839 28.34-65.458 72.244-65.458 121.443 0 39.842 17.066 77.994 47.274 106.619-4.775 5.632-10.539 11.042-17.062 15.985-7.981 6.051-11.593 16.228-9.2 25.926 2.398 9.719 10.348 17.063 20.25 18.709 7.53 1.252 15.049 1.868 22.469 1.868 24.241 0 47.414-6.575 66.385-19.021 13.498 3.016 27.385 4.541 41.384 4.541 72.682 0 134.941-40.979 159.868-98.655 4.37-.769 8.715-1.645 13.027-2.649 24.825 16.796 55.813 25.687 87.943 25.687 12.507 0 25.188-1.348 37.743-4.1 9.741-2.136 17.292-9.824 19.237-19.589 1.937-9.719-2.07-19.668-10.208-25.344zm-135.435-7.381c-17.961 4.74-36.631 7.144-55.493 7.144-106.872 0-193.818-76.848-193.818-171.307s86.946-171.307 193.818-171.307 193.818 76.848 193.818 171.307c0 48.484-23.442 94.923-64.317 127.408-5.919 4.705-7.412 13.08-3.481 19.539 11.011 18.099 25.699 32.236 38.348 42.224-35.351 4.975-70.556-3.121-95.968-22.444-2.639-2.006-5.834-3.06-9.08-3.06-1.279 0-2.565.163-3.827.496zm-212.805 96.804c-4.467-1.181-9.23-.232-12.907 2.563-16.236 12.348-37.768 18.313-60.4 16.968 9.264-8.271 16.874-17.266 22.703-26.847 3.93-6.46 2.437-14.834-3.482-19.539-29.732-23.63-46.784-57.36-46.784-92.545 0-34.646 16.139-66.03 42.137-88.64 10.152 33.776 30.034 64.695 58.402 90.005 42.192 37.644 98.178 58.375 157.643 58.375 2.519 0 5.034-.043 7.547-.119-24.039 38.701-70.71 65.007-124.229 65.007-13.813 0-27.483-1.76-40.63-5.228z"/><path d="m239.697 186.851c8.284 0 15-6.716 15-15v-37.7c0-8.284-6.716-15-15-15s-15 6.716-15 15v37.7c0 8.284 6.716 15 15 15z"/><path d="m330.178 187.322c8.284 0 15-6.716 15-15v-37.7c0-8.284-6.716-15-15-15s-15 6.716-15 15v37.7c0 8.284 6.716 15 15 15z"/><path d="m419.635 196.827c0-8.284-6.716-15-15-15s-15 6.716-15 15c0 44.738-45.698 81.135-101.87 81.135s-101.87-36.396-101.87-81.135c0-8.284-6.716-15-15-15s-15 6.716-15 15c0 30.247 14.1 58.502 39.702 79.562 24.751 20.36 57.484 31.573 92.168 31.573 34.685 0 67.417-11.213 92.169-31.573 25.601-21.06 39.701-49.315 39.701-79.562z"/></svg>