<svg width="1400" height="973" viewBox="0 0 1400 973" fill="none" xmlns="http://www.w3.org/2000/svg">
<path opacity="0.88" d="M348 111C348 99.9543 356.954 91 368 91H585C596.046 91 605 99.9543 605 111V248H348V111Z" fill="#2C2C2C"/>
<path opacity="0.88" d="M234.78 937.673L14.3153 57.1728C7.04486 28.136 29.0046 0 58.9378 0H1339.16C1369.68 0 1391.73 29.175 1383.42 58.538L1133.98 939.038C1128.37 958.835 1110.3 972.5 1089.72 972.5H279.402C258.301 972.5 239.905 958.143 234.78 937.673Z" fill="url(#paint0_linear)" fill-opacity="0.17"/>
<g filter="url(#filter0_b)">
<path d="M370 872.787C387.998 871.669 425.753 853.271 432.796 788.63C441.599 707.829 446.587 624.963 465.367 554.229C480.391 497.643 510.654 476.87 522.001 472.395C533.738 469.125 562.906 485.251 580.982 554.229C599.057 623.207 601.229 739.237 605.044 788.63C602.453 816.293 640.179 868.098 691.803 872.787H706.866C701.735 873.253 696.706 873.233 691.803 872.787H370Z" fill="url(#paint1_linear)"/>
<path d="M370 873.02C405.213 872.663 454.572 840.761 468.351 820.137C485.575 794.357 522.459 762.216 559.203 739.648C588.599 721.594 630.641 715.579 652.841 714.152C675.806 713.108 715.826 723.139 751.192 745.147C786.559 767.155 793.591 770.179 860.671 820.137C886.518 839.386 910.876 871.428 1012.86 873.02H1029.1C1023.48 873.103 1018.07 873.101 1012.86 873.02H370Z" fill="url(#paint2_linear)"/>
</g>
<rect x="175" y="147.747" width="129.74" height="48.6816" rx="24.3408" fill="url(#paint3_linear)"/>
<rect x="379" y="130" width="195" height="79" rx="39.5" fill="url(#paint4_linear)"/>
<rect x="646.63" y="147.624" width="129.74" height="48.6816" rx="24.3408" fill="url(#paint5_linear)"/>
<rect x="871" y="147.747" width="129.74" height="48.6816" rx="24.3408" fill="url(#paint6_linear)"/>
<path d="M1095 172.087C1095 158.644 1105.9 147.747 1119.34 147.747H1200.4C1213.84 147.747 1224.74 158.644 1224.74 172.087C1224.74 185.53 1213.84 196.428 1200.4 196.428H1119.34C1105.9 196.428 1095 185.53 1095 172.087Z" fill="url(#paint7_linear)"/>
<rect x="114" y="248" width="1171" height="18" rx="9" fill="#2C2C2C"/>
<g filter="url(#filter1_d)">
<rect x="831" y="344" width="264" height="284" rx="31" fill="#4E4E4E"/>
</g>
<rect x="887" y="402" width="152" height="13" rx="6.5" fill="#202020"/>
<rect x="887" y="454" width="152" height="13" rx="6.5" fill="#202020"/>
<rect x="887" y="506" width="152" height="13" rx="6.5" fill="#202020"/>
<rect x="887" y="558" width="152" height="13" rx="6.5" fill="#202020"/>
<defs>
<filter id="filter0_b" x="366" y="468" width="667.105" height="409.129" filterUnits="userSpaceOnUse" color-interpolation-filters="sRGB">
<feFlood flood-opacity="0" result="BackgroundImageFix"/>
<feGaussianBlur in="BackgroundImage" stdDeviation="2"/>
<feComposite in2="SourceAlpha" operator="in" result="effect1_backgroundBlur"/>
<feBlend mode="normal" in="SourceGraphic" in2="effect1_backgroundBlur" result="shape"/>
</filter>
<filter id="filter1_d" x="821" y="334" width="304" height="324" filterUnits="userSpaceOnUse" color-interpolation-filters="sRGB">
<feFlood flood-opacity="0" result="BackgroundImageFix"/>
<feColorMatrix in="SourceAlpha" type="matrix" values="0 0 0 0 0 0 0 0 0 0 0 0 0 0 0 0 0 0 127 0"/>
<feOffset dx="10" dy="10"/>
<feGaussianBlur stdDeviation="10"/>
<feColorMatrix type="matrix" values="0 0 0 0 0 0 0 0 0 0 0 0 0 0 0 0 0 0 0.5 0"/>
<feBlend mode="normal" in2="BackgroundImageFix" result="effect1_dropShadow"/>
<feBlend mode="normal" in="SourceGraphic" in2="effect1_dropShadow" result="shape"/>
</filter>
<linearGradient id="paint0_linear" x1="700" y1="0" x2="700" y2="972.5" gradientUnits="userSpaceOnUse">
<stop stop-color="#121212" stop-opacity="0.37"/>
<stop offset="1" stop-color="#DCDCDC"/>
</linearGradient>
<linearGradient id="paint1_linear" x1="538.433" y1="472" x2="538.433" y2="873.129" gradientUnits="userSpaceOnUse">
<stop stop-color="#FFC68A"/>
<stop offset="1" stop-color="#FBAC5E"/>
</linearGradient>
<linearGradient id="paint2_linear" x1="699.552" y1="714.078" x2="699.552" y2="873.082" gradientUnits="userSpaceOnUse">
<stop stop-color="#84DFE2"/>
<stop offset="0.9999" stop-color="#5BABAF"/>
<stop offset="1" stop-color="#55D1D8"/>
</linearGradient>
<linearGradient id="paint3_linear" x1="239.87" y1="147.747" x2="239.87" y2="196.428" gradientUnits="userSpaceOnUse">
<stop stop-color="#83DEC4"/>
<stop offset="1" stop-color="#4ACFAC"/>
</linearGradient>
<linearGradient id="paint4_linear" x1="476.5" y1="130" x2="476.5" y2="209" gradientUnits="userSpaceOnUse">
<stop stop-color="#FEA38D"/>
<stop offset="1" stop-color="#FE8062"/>
</linearGradient>
<linearGradient id="paint5_linear" x1="711.5" y1="147.624" x2="711.5" y2="196.305" gradientUnits="userSpaceOnUse">
<stop stop-color="#A4ADE9"/>
<stop offset="1" stop-color="#7E8CE0"/>
</linearGradient>
<linearGradient id="paint6_linear" x1="935.87" y1="147.747" x2="935.87" y2="196.428" gradientUnits="userSpaceOnUse">
<stop stop-color="#FFC68A"/>
<stop offset="1" stop-color="#FFAF5F"/>
</linearGradient>
<linearGradient id="paint7_linear" x1="1224.74" y1="147.747" x2="1224.74" y2="196.428" gradientUnits="userSpaceOnUse">
<stop stop-color="#84DFE2"/>
<stop offset="1" stop-color="#55D1D8"/>
</linearGradient>
</defs>
</svg>
