<svg width="1200" height="1200" viewBox="0 0 1200 1200" fill="none" xmlns="http://www.w3.org/2000/svg">
<path d="M566.346 121.823H638.954V281.716H566.346V121.823Z" fill="url(#paint0_linear)"/>
<path fill-rule="evenodd" clip-rule="evenodd" d="M638.954 121.823H566.346V281.716H638.954V121.823Z" fill="url(#paint1_linear)"/>
<path fill-rule="evenodd" clip-rule="evenodd" d="M602.649 114.209C622.699 114.209 638.953 97.1649 638.953 76.1396C638.953 55.1142 622.699 38.0698 602.649 38.0698C582.598 38.0698 566.344 55.1142 566.344 76.1396C566.344 97.1649 582.598 114.209 602.649 114.209ZM602.649 152.279C642.749 152.279 675.257 118.19 675.257 76.1396C675.257 34.0888 642.749 0 602.649 0C562.548 0 530.04 34.0888 530.04 76.1396C530.04 118.19 562.548 152.279 602.649 152.279Z" fill="url(#paint2_linear)"/>
<path d="M125.362 702.733L118.931 626.893L270.81 612.73L277.241 688.57L125.362 702.733Z" fill="url(#paint3_linear)"/>
<path fill-rule="evenodd" clip-rule="evenodd" d="M118.931 626.893L125.362 702.733L277.241 688.57L270.81 612.73L118.931 626.893Z" fill="url(#paint4_linear)"/>
<path fill-rule="evenodd" clip-rule="evenodd" d="M114.916 665.487C113.14 644.544 95.5102 629.077 75.5387 630.939C55.5671 632.801 40.8167 651.288 42.5927 672.231C44.3686 693.174 61.9984 708.641 81.9699 706.779C101.941 704.917 116.692 686.43 114.916 665.487ZM151.078 662.115C147.526 620.23 112.266 589.294 72.323 593.019C32.38 596.743 2.87917 633.718 6.43105 675.603C9.98293 717.488 45.2425 748.424 85.1855 744.699C125.129 740.975 154.629 704 151.078 662.115Z" fill="url(#paint5_linear)"/>
<path fill-rule="evenodd" clip-rule="evenodd" d="M739.349 551.278C737.573 530.335 719.943 514.867 699.971 516.729C680 518.592 665.249 537.079 667.025 558.022C668.801 578.964 686.431 594.432 706.403 592.57C726.374 590.707 741.124 572.22 739.349 551.278ZM775.51 547.906C771.958 506.02 736.699 475.085 696.756 478.809C656.813 482.534 627.312 519.508 630.864 561.394C634.416 603.279 669.675 634.215 709.618 630.49C749.561 626.765 779.062 589.791 775.51 547.906Z" fill="url(#paint6_linear)"/>
<path d="M443.207 231.068L489.003 207.949L529.946 297.134L484.151 320.252L443.207 231.068Z" fill="url(#paint7_linear)"/>
<path fill-rule="evenodd" clip-rule="evenodd" d="M443.207 231.068L489.003 207.949L529.946 297.134L484.151 320.252L443.207 231.068Z" fill="url(#paint8_linear)"/>
<path fill-rule="evenodd" clip-rule="evenodd" d="M463.181 191.989C464.066 189.644 463.763 188.075 463.322 187.113C462.88 186.151 461.899 184.924 459.6 184.187C457.236 183.429 453.901 183.418 450.359 185.206C446.817 186.995 444.745 189.735 443.836 192.145C442.951 194.49 443.253 196.059 443.695 197.021C444.137 197.983 445.117 199.209 447.417 199.947C449.781 200.705 453.116 200.715 456.658 198.927C460.2 197.139 462.272 194.399 463.181 191.989ZM472.406 233.229C495.891 221.373 506.469 193.333 496.033 170.599C485.596 147.866 458.097 139.048 434.611 150.905C411.126 162.761 400.547 190.801 410.984 213.534C421.421 236.267 448.92 245.085 472.406 233.229Z" fill="url(#paint9_linear)"/>
<path d="M226.486 461.465L251.281 414.939L333.679 463.226L308.884 509.752L226.486 461.465Z" fill="url(#paint10_linear)"/>
<path fill-rule="evenodd" clip-rule="evenodd" d="M226.486 461.465L251.281 414.939L333.679 463.226L308.884 509.752L226.486 461.465Z" fill="url(#paint11_linear)"/>
<path fill-rule="evenodd" clip-rule="evenodd" d="M221.401 417.449C220.839 414.997 219.731 413.896 218.842 413.375C217.953 412.854 216.478 412.442 214.192 413.225C211.843 414.03 209.109 416.032 207.191 419.63C205.273 423.229 205.08 426.72 205.657 429.24C206.219 431.692 207.327 432.793 208.216 433.314C209.105 433.835 210.579 434.247 212.865 433.464C215.215 432.659 217.949 430.658 219.867 427.059C221.785 423.46 221.978 419.969 221.401 417.449ZM251.558 445.631C264.274 421.771 257.556 392.451 236.553 380.142C215.55 367.834 188.215 377.198 175.499 401.058C162.784 424.918 169.502 454.238 190.505 466.547C211.508 478.855 238.843 469.491 251.558 445.631Z" fill="url(#paint12_linear)"/>
<path d="M985.792 508.806L995.342 561.154L902.632 579.752L893.082 527.404L985.792 508.806Z" fill="url(#paint13_linear)"/>
<path fill-rule="evenodd" clip-rule="evenodd" d="M985.792 508.806L995.342 561.154L902.632 579.752L893.082 527.404L985.792 508.806Z" fill="url(#paint14_linear)"/>
<path fill-rule="evenodd" clip-rule="evenodd" d="M1016.68 539.082C1018.62 540.58 1020.14 540.676 1021.14 540.476C1022.14 540.275 1023.52 539.596 1024.79 537.455C1026.1 535.254 1026.97 531.877 1026.23 527.828C1025.49 523.779 1023.5 520.975 1021.51 519.435C1019.57 517.936 1018.05 517.84 1017.05 518.041C1016.05 518.241 1014.67 518.92 1013.4 521.062C1012.09 523.263 1011.23 526.64 1011.96 530.689C1012.7 534.738 1014.7 537.541 1016.68 539.082ZM976.307 537.842C981.204 564.688 1004.33 582.608 1027.96 577.868C1051.6 573.127 1066.78 547.521 1061.89 520.675C1056.99 493.828 1033.86 475.908 1010.23 480.649C986.596 485.39 971.409 510.996 976.307 537.842Z" fill="url(#paint15_linear)"/>
<path d="M968.482 860.915L937.608 908.627L864.042 839.564L894.917 791.852L968.482 860.915Z" fill="url(#paint16_linear)"/>
<path fill-rule="evenodd" clip-rule="evenodd" d="M968.482 860.915L937.608 908.627L864.042 839.564L894.917 791.852L968.482 860.915Z" fill="url(#paint17_linear)"/>
<path fill-rule="evenodd" clip-rule="evenodd" d="M965.153 912.777C965.401 916.348 966.555 918.034 967.396 918.823C968.237 919.613 969.876 920.549 972.811 919.967C975.825 919.369 979.577 917.152 982.585 912.503C985.593 907.854 986.462 902.931 986.208 899.265C985.96 895.695 984.805 894.008 983.965 893.219C983.124 892.429 981.484 891.493 978.549 892.075C975.535 892.673 971.784 894.89 968.775 899.539C965.767 904.188 964.899 909.111 965.153 912.777ZM941.727 874.146C925.893 898.614 928.259 932.721 947.011 950.325C965.763 967.93 993.8 962.365 1009.63 937.896C1025.47 913.428 1023.1 879.321 1004.35 861.717C985.597 844.113 957.56 849.677 941.727 874.146Z" fill="url(#paint18_linear)"/>
<path d="M582.97 1075.09L532.166 1073.53L534.938 974.587L585.742 976.152L582.97 1075.09Z" fill="url(#paint19_linear)"/>
<path fill-rule="evenodd" clip-rule="evenodd" d="M582.97 1075.09L532.166 1073.53L534.938 974.587L585.742 976.152L582.97 1075.09Z" fill="url(#paint20_linear)"/>
<path fill-rule="evenodd" clip-rule="evenodd" d="M548.089 1100.15C546.274 1101.81 545.855 1103.35 545.825 1104.42C545.795 1105.48 546.128 1107.04 547.846 1108.81C549.612 1110.62 552.569 1112.24 556.498 1112.36C560.428 1112.48 563.47 1111.05 565.334 1109.35C567.149 1107.69 567.568 1106.15 567.598 1105.09C567.628 1104.02 567.295 1102.46 565.577 1100.69C563.811 1098.88 560.854 1097.26 556.925 1097.14C552.995 1097.02 549.953 1098.45 548.089 1100.15ZM557.991 1059.09C531.937 1058.28 510.243 1078.08 509.536 1103.3C508.83 1128.52 529.378 1149.61 555.432 1150.41C581.486 1151.22 603.18 1131.42 603.887 1106.2C604.593 1080.98 584.045 1059.89 557.991 1059.09Z" fill="url(#paint21_linear)"/>
<path d="M345.09 933.105L325.078 914.17L358.966 875.605L378.978 894.54L345.09 933.105Z" fill="url(#paint22_linear)"/>
<path fill-rule="evenodd" clip-rule="evenodd" d="M378.978 894.54L358.966 875.605L325.078 914.17L345.09 933.105L378.978 894.54Z" fill="url(#paint23_linear)"/>
<path fill-rule="evenodd" clip-rule="evenodd" d="M322.764 948.356C325.836 948.336 329.877 947.011 333.028 943.425C336.18 939.838 337.079 935.541 336.815 932.366C336.557 929.26 335.235 926.838 333.617 925.307C331.999 923.776 329.553 922.633 326.549 922.652C323.477 922.672 319.437 923.996 316.285 927.583C313.134 931.17 312.234 935.466 312.498 938.642C312.756 941.748 314.078 944.17 315.696 945.701C317.314 947.232 319.76 948.375 322.764 948.356ZM340.297 917.705C330.034 907.994 314.712 908.091 306.074 917.922C297.436 927.752 298.753 943.593 309.016 953.303C319.279 963.014 334.601 962.916 343.239 953.086C351.877 943.256 350.56 927.415 340.297 917.705Z" fill="url(#paint24_linear)"/>
<path d="M941.93 420.717L957.132 444.057L915.543 473.18L900.341 449.84L941.93 420.717Z" fill="url(#paint25_linear)"/>
<path fill-rule="evenodd" clip-rule="evenodd" d="M900.341 449.84L915.543 473.18L957.132 444.057L941.93 420.717L900.341 449.84Z" fill="url(#paint26_linear)"/>
<path fill-rule="evenodd" clip-rule="evenodd" d="M967.055 411.402C964.065 410.663 959.841 410.954 955.973 413.662C952.106 416.371 950.267 420.325 949.812 423.477C949.366 426.56 950.107 429.24 951.336 431.127C952.565 433.014 954.686 434.728 957.61 435.451C960.6 436.189 964.825 435.898 968.692 433.19C972.56 430.482 974.398 426.527 974.854 423.375C975.3 420.293 974.559 417.613 973.33 415.726C972.1 413.838 969.98 412.125 967.055 411.402ZM943.138 436.868C950.934 448.837 965.848 452.523 976.449 445.099C987.05 437.676 989.324 421.955 981.528 409.985C973.731 398.015 958.817 394.33 948.216 401.753C937.615 409.177 935.342 424.898 943.138 436.868Z" fill="url(#paint27_linear)"/>
<path d="M737.691 201.12L785.232 219.973L751.843 312.555L704.303 293.702L737.691 201.12Z" fill="url(#paint28_linear)"/>
<path fill-rule="evenodd" clip-rule="evenodd" d="M737.691 201.12L785.232 219.973L751.843 312.555L704.303 293.702L737.691 201.12Z" fill="url(#paint29_linear)"/>
<path fill-rule="evenodd" clip-rule="evenodd" d="M778.457 189.354C780.687 188.41 781.562 187.098 781.922 186.1C782.283 185.101 782.454 183.51 781.378 181.255C780.272 178.937 777.981 176.396 774.304 174.938C770.627 173.48 767.305 173.795 765.013 174.765C762.784 175.71 761.908 177.021 761.548 178.02C761.188 179.019 761.017 180.609 762.093 182.865C763.198 185.182 765.49 187.723 769.167 189.181C772.844 190.64 776.165 190.325 778.457 189.354ZM756.325 224.79C780.705 234.458 807.369 223.165 815.88 199.566C824.39 175.967 811.526 148.998 787.145 139.329C762.765 129.661 736.102 140.954 727.591 164.554C719.08 188.153 731.945 215.122 756.325 224.79Z" fill="url(#paint30_linear)"/>
<path d="M244.93 912.753L201.95 844.358L333.975 746.168L376.955 814.563L244.93 912.753Z" fill="url(#paint31_linear)"/>
<path fill-rule="evenodd" clip-rule="evenodd" d="M244.93 912.753L376.955 814.563L333.975 746.168L201.95 844.358L244.93 912.753Z" fill="url(#paint32_linear)"/>
<path fill-rule="evenodd" clip-rule="evenodd" d="M218.975 881.876C206.019 861.258 180.711 856.62 162.715 870.004C144.719 883.388 139.506 910.725 152.462 931.344C165.419 951.962 190.726 956.6 208.722 943.217C226.718 929.833 231.932 902.495 218.975 881.876ZM248.588 859.853C224.851 822.079 177.461 812.392 142.739 838.215C108.018 864.038 99.1127 915.594 122.85 953.367C146.587 991.141 193.977 1000.83 228.698 975.005C263.42 949.182 272.325 897.626 248.588 859.853Z" fill="url(#paint33_linear)"/>
<path fill-rule="evenodd" clip-rule="evenodd" d="M613.972 681.177C608.063 671.774 596.266 669.848 587.758 676.175C579.251 682.503 576.618 695.16 582.527 704.563C588.436 713.967 600.233 715.893 608.741 709.565C617.248 703.238 619.881 690.58 613.972 681.177ZM627.972 670.765C617.146 653.538 595.063 649.469 578.648 661.678C562.233 673.886 557.702 697.748 568.527 714.975C579.353 732.203 601.436 736.271 617.851 724.063C634.266 711.855 638.797 687.992 627.972 670.765Z" fill="url(#paint34_linear)"/>
<path d="M863.617 1021.16L798.614 1066.58L704.306 928.637L769.309 883.219L863.617 1021.16Z" fill="url(#paint35_linear)"/>
<path fill-rule="evenodd" clip-rule="evenodd" d="M863.617 1021.16L769.309 883.219L704.306 928.637L798.614 1066.58L863.617 1021.16Z" fill="url(#paint36_linear)"/>
<path fill-rule="evenodd" clip-rule="evenodd" d="M834.301 1048.54C814.705 1062.23 810.411 1088.79 823.266 1107.59C836.12 1126.39 862.217 1131.72 881.812 1118.03C901.408 1104.34 905.703 1077.78 892.848 1058.97C879.993 1040.17 853.897 1034.84 834.301 1048.54ZM813.148 1017.6C777.248 1042.68 768.251 1092.42 793.053 1128.7C817.856 1164.98 867.065 1174.05 902.965 1148.97C938.866 1123.89 947.862 1074.14 923.06 1037.87C898.258 1001.59 849.048 992.513 813.148 1017.6Z" fill="url(#paint37_linear)"/>
<path d="M1070.02 685.92L1051.59 765.516L893.084 731.132L911.517 651.537L1070.02 685.92Z" fill="url(#paint38_linear)"/>
<path fill-rule="evenodd" clip-rule="evenodd" d="M1070.02 685.92L911.517 651.537L893.084 731.132L1051.59 765.516L1070.02 685.92Z" fill="url(#paint39_linear)"/>
<path fill-rule="evenodd" clip-rule="evenodd" d="M1066.16 726.881C1060.61 750.875 1074.62 773.456 1096.22 778.143C1117.83 782.829 1140.46 768.197 1146.02 744.202C1151.57 720.208 1137.56 697.627 1115.95 692.94C1094.35 688.253 1071.72 702.886 1066.16 726.881ZM1030.61 719.169C1020.43 763.128 1045.97 806.095 1087.66 815.137C1129.34 824.18 1171.39 795.874 1181.57 751.914C1191.75 707.955 1166.21 664.988 1124.52 655.946C1082.84 646.903 1040.79 675.209 1030.61 719.169Z" fill="url(#paint40_linear)"/>
<path d="M285.167 287.128L344.637 243.444L432.118 374.403L372.649 418.087L285.167 287.128Z" fill="url(#paint41_linear)"/>
<path fill-rule="evenodd" clip-rule="evenodd" d="M344.637 243.444L285.167 287.128L372.649 418.087L432.118 374.403L344.637 243.444Z" fill="url(#paint42_linear)"/>
<path fill-rule="evenodd" clip-rule="evenodd" d="M310.737 259.049C327.159 246.986 331.146 223.247 319.643 206.027C308.139 188.806 285.501 184.625 269.079 196.688C252.657 208.751 248.67 232.49 260.173 249.71C271.677 266.931 294.315 271.112 310.737 259.049ZM331.566 290.23C364.41 266.104 372.384 218.626 349.377 184.185C326.37 149.743 281.094 141.381 248.25 165.507C215.406 189.633 207.431 237.111 230.438 271.552C253.445 305.994 298.722 314.356 331.566 290.23Z" fill="url(#paint43_linear)"/>
<path d="M895.009 214.344L953.948 258.811L864.898 388.603L805.959 344.136L895.009 214.344Z" fill="url(#paint44_linear)"/>
<path fill-rule="evenodd" clip-rule="evenodd" d="M953.948 258.811L895.009 214.344L805.959 344.136L864.898 388.603L953.948 258.811Z" fill="url(#paint45_linear)"/>
<path fill-rule="evenodd" clip-rule="evenodd" d="M916.743 184.022C908.594 203.232 916.838 225.733 935.158 234.278C953.477 242.824 974.935 234.178 983.084 214.968C991.233 195.758 982.989 173.257 964.669 164.711C946.35 156.166 924.893 164.811 916.743 184.022ZM883.573 168.548C867.274 206.969 883.763 251.97 920.402 269.062C957.041 286.153 999.956 268.862 1016.25 230.441C1032.55 192.02 1016.06 147.019 979.425 129.928C942.786 112.837 899.871 130.128 883.573 168.548Z" fill="url(#paint46_linear)"/>
<path fill-rule="evenodd" clip-rule="evenodd" d="M480.742 556.028C474.887 569.828 480.837 586.005 494.03 592.16C507.223 598.314 522.664 592.115 528.519 578.314C534.373 564.514 528.424 548.337 515.231 542.183C502.037 536.028 486.596 542.227 480.742 556.028ZM456.853 544.884C445.144 572.486 457.043 604.839 483.429 617.148C509.816 629.457 540.699 617.059 552.407 589.458C564.116 561.856 552.218 529.503 525.831 517.194C499.445 504.885 468.562 517.283 456.853 544.884Z" fill="url(#paint47_linear)"/>
<path d="M417.163 1083.09L352.458 1048.55L421.639 906.061L486.344 940.606L417.163 1083.09Z" fill="url(#paint48_linear)"/>
<path fill-rule="evenodd" clip-rule="evenodd" d="M352.458 1048.55L417.163 1083.09L486.344 940.606L421.639 906.061L352.458 1048.55Z" fill="url(#paint49_linear)"/>
<path fill-rule="evenodd" clip-rule="evenodd" d="M400.073 1116.53C405.34 1096.25 393.926 1075.32 374.58 1069.8C355.234 1064.28 335.281 1076.25 330.014 1096.53C324.747 1116.82 336.16 1137.74 355.507 1143.27C374.853 1148.79 394.806 1136.82 400.073 1116.53ZM435.102 1126.53C445.636 1085.96 422.809 1044.11 384.117 1033.07C345.425 1022.02 305.519 1045.96 294.985 1086.53C284.451 1127.11 307.277 1168.95 345.97 1180C384.662 1191.05 424.568 1167.11 435.102 1126.53Z" fill="url(#paint50_linear)"/>
<path fill-rule="evenodd" clip-rule="evenodd" d="M609.911 928.903C770.314 928.903 900.346 792.548 900.346 624.345C900.346 456.142 770.314 319.786 609.911 319.786C449.509 319.786 319.477 456.142 319.477 624.345C319.477 792.548 449.509 928.903 609.911 928.903ZM609.911 1005.04C810.414 1005.04 972.954 834.598 972.954 624.345C972.954 414.091 810.414 243.647 609.911 243.647C409.408 243.647 246.868 414.091 246.868 624.345C246.868 834.598 409.408 1005.04 609.911 1005.04Z" fill="url(#paint51_linear)"/>
<defs>
<linearGradient id="paint0_linear" x1="602.65" y1="121.823" x2="602.65" y2="281.716" gradientUnits="userSpaceOnUse">
<stop stop-color="#FF6954"/>
<stop offset="1" stop-color="#161616" stop-opacity="0.854167"/>
</linearGradient>
<linearGradient id="paint1_linear" x1="602.65" y1="121.823" x2="602.65" y2="281.716" gradientUnits="userSpaceOnUse">
<stop stop-color="#FF6954"/>
<stop offset="1" stop-color="#161616" stop-opacity="0.854167"/>
</linearGradient>
<linearGradient id="paint2_linear" x1="602.649" y1="0" x2="602.649" y2="152.279" gradientUnits="userSpaceOnUse">
<stop stop-color="#FF6954"/>
<stop offset="1" stop-color="#161616" stop-opacity="0.854167"/>
</linearGradient>
<linearGradient id="paint3_linear" x1="122.147" y1="664.813" x2="274.133" y2="651.924" gradientUnits="userSpaceOnUse">
<stop stop-color="#FF6954"/>
<stop offset="1" stop-color="#161616" stop-opacity="0.854167"/>
</linearGradient>
<linearGradient id="paint4_linear" x1="122.147" y1="664.813" x2="274.133" y2="651.924" gradientUnits="userSpaceOnUse">
<stop stop-color="#FF6954"/>
<stop offset="1" stop-color="#161616" stop-opacity="0.854167"/>
</linearGradient>
<linearGradient id="paint5_linear" x1="6.43105" y1="675.603" x2="151.18" y2="663.328" gradientUnits="userSpaceOnUse">
<stop stop-color="#FF6954"/>
<stop offset="1" stop-color="#161616" stop-opacity="0.854167"/>
</linearGradient>
<linearGradient id="paint6_linear" x1="630.864" y1="561.394" x2="775.613" y2="549.119" gradientUnits="userSpaceOnUse">
<stop stop-color="#FF6954"/>
<stop offset="1" stop-color="#161616" stop-opacity="0.854167"/>
</linearGradient>
<linearGradient id="paint7_linear" x1="466.105" y1="219.508" x2="510.299" y2="307.052" gradientUnits="userSpaceOnUse">
<stop stop-color="#FF6954"/>
<stop offset="1" stop-color="#161616" stop-opacity="0.854167"/>
</linearGradient>
<linearGradient id="paint8_linear" x1="466.105" y1="219.508" x2="510.299" y2="307.052" gradientUnits="userSpaceOnUse">
<stop stop-color="#FF6954"/>
<stop offset="1" stop-color="#161616" stop-opacity="0.854167"/>
</linearGradient>
<linearGradient id="paint9_linear" x1="434.611" y1="150.905" x2="475.406" y2="231.714" gradientUnits="userSpaceOnUse">
<stop stop-color="#FF6954"/>
<stop offset="1" stop-color="#161616" stop-opacity="0.854167"/>
</linearGradient>
<linearGradient id="paint10_linear" x1="238.884" y1="438.202" x2="323.097" y2="483.082" gradientUnits="userSpaceOnUse">
<stop stop-color="#FF6954"/>
<stop offset="1" stop-color="#161616" stop-opacity="0.854167"/>
</linearGradient>
<linearGradient id="paint11_linear" x1="238.884" y1="438.202" x2="323.097" y2="483.082" gradientUnits="userSpaceOnUse">
<stop stop-color="#FF6954"/>
<stop offset="1" stop-color="#161616" stop-opacity="0.854167"/>
</linearGradient>
<linearGradient id="paint12_linear" x1="175.499" y1="401.058" x2="253.235" y2="442.486" gradientUnits="userSpaceOnUse">
<stop stop-color="#FF6954"/>
<stop offset="1" stop-color="#161616" stop-opacity="0.854167"/>
</linearGradient>
<linearGradient id="paint13_linear" x1="990.567" y1="534.98" x2="897.559" y2="551.947" gradientUnits="userSpaceOnUse">
<stop stop-color="#FF6954"/>
<stop offset="1" stop-color="#161616" stop-opacity="0.854167"/>
</linearGradient>
<linearGradient id="paint14_linear" x1="990.567" y1="534.98" x2="897.559" y2="551.947" gradientUnits="userSpaceOnUse">
<stop stop-color="#FF6954"/>
<stop offset="1" stop-color="#161616" stop-opacity="0.854167"/>
</linearGradient>
<linearGradient id="paint15_linear" x1="1061.89" y1="520.675" x2="976.032" y2="536.337" gradientUnits="userSpaceOnUse">
<stop stop-color="#FF6954"/>
<stop offset="1" stop-color="#161616" stop-opacity="0.854167"/>
</linearGradient>
<linearGradient id="paint16_linear" x1="953.045" y1="884.771" x2="869.692" y2="830.833" gradientUnits="userSpaceOnUse">
<stop stop-color="#FF6954"/>
<stop offset="1" stop-color="#161616" stop-opacity="0.854167"/>
</linearGradient>
<linearGradient id="paint17_linear" x1="953.045" y1="884.771" x2="869.692" y2="830.833" gradientUnits="userSpaceOnUse">
<stop stop-color="#FF6954"/>
<stop offset="1" stop-color="#161616" stop-opacity="0.854167"/>
</linearGradient>
<linearGradient id="paint18_linear" x1="1009.63" y1="937.896" x2="932.692" y2="888.108" gradientUnits="userSpaceOnUse">
<stop stop-color="#FF6954"/>
<stop offset="1" stop-color="#161616" stop-opacity="0.854167"/>
</linearGradient>
<linearGradient id="paint19_linear" x1="557.568" y1="1074.31" x2="560.616" y2="975.378" gradientUnits="userSpaceOnUse">
<stop stop-color="#FF6954"/>
<stop offset="1" stop-color="#161616" stop-opacity="0.854167"/>
</linearGradient>
<linearGradient id="paint20_linear" x1="557.568" y1="1074.31" x2="560.616" y2="975.378" gradientUnits="userSpaceOnUse">
<stop stop-color="#FF6954"/>
<stop offset="1" stop-color="#161616" stop-opacity="0.854167"/>
</linearGradient>
<linearGradient id="paint21_linear" x1="555.432" y1="1150.41" x2="558.246" y2="1059.09" gradientUnits="userSpaceOnUse">
<stop stop-color="#FF6954"/>
<stop offset="1" stop-color="#161616" stop-opacity="0.854167"/>
</linearGradient>
<linearGradient id="paint22_linear" x1="335.084" y1="923.638" x2="370.344" y2="886.371" gradientUnits="userSpaceOnUse">
<stop stop-color="#FF6954"/>
<stop offset="1" stop-color="#161616" stop-opacity="0.854167"/>
</linearGradient>
<linearGradient id="paint23_linear" x1="335.084" y1="923.638" x2="370.344" y2="886.371" gradientUnits="userSpaceOnUse">
<stop stop-color="#FF6954"/>
<stop offset="1" stop-color="#161616" stop-opacity="0.854167"/>
</linearGradient>
<linearGradient id="paint24_linear" x1="309.016" y1="953.303" x2="341.564" y2="918.904" gradientUnits="userSpaceOnUse">
<stop stop-color="#FF6954"/>
<stop offset="1" stop-color="#161616" stop-opacity="0.854167"/>
</linearGradient>
<linearGradient id="paint25_linear" x1="949.531" y1="432.387" x2="907.012" y2="460.081" gradientUnits="userSpaceOnUse">
<stop stop-color="#FF6954"/>
<stop offset="1" stop-color="#161616" stop-opacity="0.854167"/>
</linearGradient>
<linearGradient id="paint26_linear" x1="949.531" y1="432.387" x2="907.012" y2="460.081" gradientUnits="userSpaceOnUse">
<stop stop-color="#FF6954"/>
<stop offset="1" stop-color="#161616" stop-opacity="0.854167"/>
</linearGradient>
<linearGradient id="paint27_linear" x1="981.528" y1="409.985" x2="942.279" y2="435.549" gradientUnits="userSpaceOnUse">
<stop stop-color="#FF6954"/>
<stop offset="1" stop-color="#161616" stop-opacity="0.854167"/>
</linearGradient>
<linearGradient id="paint28_linear" x1="761.461" y1="210.547" x2="725.199" y2="301.989" gradientUnits="userSpaceOnUse">
<stop stop-color="#FF6954"/>
<stop offset="1" stop-color="#161616" stop-opacity="0.854167"/>
</linearGradient>
<linearGradient id="paint29_linear" x1="761.461" y1="210.547" x2="725.199" y2="301.989" gradientUnits="userSpaceOnUse">
<stop stop-color="#FF6954"/>
<stop offset="1" stop-color="#161616" stop-opacity="0.854167"/>
</linearGradient>
<linearGradient id="paint30_linear" x1="787.145" y1="139.329" x2="753.672" y2="223.738" gradientUnits="userSpaceOnUse">
<stop stop-color="#FF6954"/>
<stop offset="1" stop-color="#161616" stop-opacity="0.854167"/>
</linearGradient>
<linearGradient id="paint31_linear" x1="223.44" y1="878.556" x2="362.324" y2="791.281" gradientUnits="userSpaceOnUse">
<stop stop-color="#FF6954"/>
<stop offset="1" stop-color="#161616" stop-opacity="0.854167"/>
</linearGradient>
<linearGradient id="paint32_linear" x1="223.44" y1="878.556" x2="362.324" y2="791.281" gradientUnits="userSpaceOnUse">
<stop stop-color="#FF6954"/>
<stop offset="1" stop-color="#161616" stop-opacity="0.854167"/>
</linearGradient>
<linearGradient id="paint33_linear" x1="122.85" y1="953.367" x2="255.12" y2="870.248" gradientUnits="userSpaceOnUse">
<stop stop-color="#FF6954"/>
<stop offset="1" stop-color="#161616" stop-opacity="0.854167"/>
</linearGradient>
<linearGradient id="paint34_linear" x1="568.527" y1="714.975" x2="631.06" y2="675.68" gradientUnits="userSpaceOnUse">
<stop stop-color="#FF6954"/>
<stop offset="1" stop-color="#161616" stop-opacity="0.854167"/>
</linearGradient>
<linearGradient id="paint35_linear" x1="831.115" y1="1043.87" x2="735.415" y2="906.901" gradientUnits="userSpaceOnUse">
<stop stop-color="#FF6954"/>
<stop offset="1" stop-color="#161616" stop-opacity="0.854167"/>
</linearGradient>
<linearGradient id="paint36_linear" x1="831.115" y1="1043.87" x2="735.415" y2="906.901" gradientUnits="userSpaceOnUse">
<stop stop-color="#FF6954"/>
<stop offset="1" stop-color="#161616" stop-opacity="0.854167"/>
</linearGradient>
<linearGradient id="paint37_linear" x1="902.965" y1="1148.97" x2="811.822" y2="1018.52" gradientUnits="userSpaceOnUse">
<stop stop-color="#FF6954"/>
<stop offset="1" stop-color="#161616" stop-opacity="0.854167"/>
</linearGradient>
<linearGradient id="paint38_linear" x1="1060.8" y1="725.718" x2="902.811" y2="689.129" gradientUnits="userSpaceOnUse">
<stop stop-color="#FF6954"/>
<stop offset="1" stop-color="#161616" stop-opacity="0.854167"/>
</linearGradient>
<linearGradient id="paint39_linear" x1="1060.8" y1="725.718" x2="902.811" y2="689.129" gradientUnits="userSpaceOnUse">
<stop stop-color="#FF6954"/>
<stop offset="1" stop-color="#161616" stop-opacity="0.854167"/>
</linearGradient>
<linearGradient id="paint40_linear" x1="1181.57" y1="751.914" x2="1031.1" y2="717.068" gradientUnits="userSpaceOnUse">
<stop stop-color="#FF6954"/>
<stop offset="1" stop-color="#161616" stop-opacity="0.854167"/>
</linearGradient>
<linearGradient id="paint41_linear" x1="314.902" y1="265.286" x2="408.044" y2="392.087" gradientUnits="userSpaceOnUse">
<stop stop-color="#FF6954"/>
<stop offset="1" stop-color="#161616" stop-opacity="0.854167"/>
</linearGradient>
<linearGradient id="paint42_linear" x1="314.902" y1="265.286" x2="408.044" y2="392.087" gradientUnits="userSpaceOnUse">
<stop stop-color="#FF6954"/>
<stop offset="1" stop-color="#161616" stop-opacity="0.854167"/>
</linearGradient>
<linearGradient id="paint43_linear" x1="248.25" y1="165.507" x2="336.957" y2="286.27" gradientUnits="userSpaceOnUse">
<stop stop-color="#FF6954"/>
<stop offset="1" stop-color="#161616" stop-opacity="0.854167"/>
</linearGradient>
<linearGradient id="paint44_linear" x1="924.478" y1="236.578" x2="829.775" y2="362.104" gradientUnits="userSpaceOnUse">
<stop stop-color="#FF6954"/>
<stop offset="1" stop-color="#161616" stop-opacity="0.854167"/>
</linearGradient>
<linearGradient id="paint45_linear" x1="924.478" y1="236.578" x2="829.775" y2="362.104" gradientUnits="userSpaceOnUse">
<stop stop-color="#FF6954"/>
<stop offset="1" stop-color="#161616" stop-opacity="0.854167"/>
</linearGradient>
<linearGradient id="paint46_linear" x1="1016.25" y1="230.441" x2="881.557" y2="173.301" gradientUnits="userSpaceOnUse">
<stop stop-color="#FF6954"/>
<stop offset="1" stop-color="#161616" stop-opacity="0.854167"/>
</linearGradient>
<linearGradient id="paint47_linear" x1="552.407" y1="589.458" x2="455.401" y2="548.307" gradientUnits="userSpaceOnUse">
<stop stop-color="#FF6954"/>
<stop offset="1" stop-color="#161616" stop-opacity="0.854167"/>
</linearGradient>
<linearGradient id="paint48_linear" x1="384.811" y1="1065.82" x2="459.355" y2="926.197" gradientUnits="userSpaceOnUse">
<stop stop-color="#FF6954"/>
<stop offset="1" stop-color="#161616" stop-opacity="0.854167"/>
</linearGradient>
<linearGradient id="paint49_linear" x1="384.811" y1="1065.82" x2="459.355" y2="926.197" gradientUnits="userSpaceOnUse">
<stop stop-color="#FF6954"/>
<stop offset="1" stop-color="#161616" stop-opacity="0.854167"/>
</linearGradient>
<linearGradient id="paint50_linear" x1="294.985" y1="1086.53" x2="435.984" y2="1123.14" gradientUnits="userSpaceOnUse">
<stop stop-color="#FF6954"/>
<stop offset="1" stop-color="#161616" stop-opacity="0.854167"/>
</linearGradient>
<linearGradient id="paint51_linear" x1="609.911" y1="243.647" x2="609.911" y2="1005.04" gradientUnits="userSpaceOnUse">
<stop stop-color="#FF6954"/>
<stop offset="1" stop-color="#161616" stop-opacity="0.854167"/>
</linearGradient>
</defs>
</svg>
