<svg width="166" height="158" viewBox="0 0 166 158" fill="none" xmlns="http://www.w3.org/2000/svg">
<path d="M84 122.5C106.368 122.5 124.5 104.368 124.5 82C124.5 59.6325 106.368 41.5 84 41.5C61.6325 41.5 43.5 59.6325 43.5 82C43.5 104.368 61.6325 122.5 84 122.5ZM133.5 82C133.5 109.338 111.338 131.5 84 131.5C56.6619 131.5 34.5 109.338 34.5 82C34.5 54.6619 56.6619 32.5 84 32.5C111.338 32.5 133.5 54.6619 133.5 82Z" fill="black" stroke="black"/>
<path d="M78.5 16.5H87.5V36.5H78.5V16.5Z" fill="black" stroke="black"/>
<path d="M78.5 36.5V16.5H87.5V36.5H78.5Z" fill="black" stroke="black"/>
<path d="M83 15.5C86.0376 15.5 88.5 13.0376 88.5 10C88.5 6.96243 86.0376 4.5 83 4.5C79.9624 4.5 77.5 6.96243 77.5 10C77.5 13.0376 79.9624 15.5 83 15.5ZM92.5 10C92.5 15.2467 88.2467 19.5 83 19.5C77.7533 19.5 73.5 15.2467 73.5 10C73.5 4.75329 77.7533 0.5 83 0.5C88.2467 0.5 92.5 4.75329 92.5 10Z" fill="black" stroke="black"/>
<path d="M17.7195 91.753L16.9223 82.7884L36.8437 81.0169L37.6409 89.9815L17.7195 91.753Z" fill="black" stroke="black"/>
<path d="M37.6409 89.9815L17.7195 91.753L16.9223 82.7884L36.8437 81.0169L37.6409 89.9815Z" fill="black" stroke="black"/>
<path d="M16.3248 87.3593C16.0558 84.3336 13.3849 82.099 10.3593 82.3681C7.33365 82.6371 5.099 85.308 5.36805 88.3336C5.6371 91.3592 8.30797 93.5939 11.3336 93.3248C14.3592 93.0558 16.5939 90.3849 16.3248 87.3593ZM10.005 78.3838C15.2311 77.919 19.8444 81.7789 20.3091 87.005C20.7738 92.2311 16.914 96.8444 11.6879 97.3091C6.46181 97.7738 1.8485 93.914 1.38378 88.6879C0.919054 83.4618 4.7789 78.8485 10.005 78.3838Z" fill="black" stroke="black"/>
<path d="M102.325 72.3593C102.056 69.3336 99.3849 67.099 96.3593 67.3681C93.3337 67.6371 91.099 70.308 91.3681 73.3336C91.6371 76.3592 94.308 78.5939 97.3336 78.3248C100.359 78.0558 102.594 75.3849 102.325 72.3593ZM96.005 63.3838C101.231 62.919 105.844 66.7789 106.309 72.005C106.774 77.2311 102.914 81.8444 97.6879 82.3091C92.4618 82.7738 87.8485 78.914 87.3838 73.6879C86.9191 68.4618 90.7789 63.8485 96.005 63.3838Z" fill="black" stroke="black"/>
<path d="M61.7081 30.5815L67.1143 27.979L72.3194 38.7913L66.9133 41.3939L61.7081 30.5815Z" fill="black" stroke="black"/>
<path d="M61.7081 30.5815L67.1143 27.979L72.3194 38.7913L66.9133 41.3939L61.7081 30.5815Z" fill="black" stroke="black"/>
<path d="M64.2564 25.3993C64.427 24.9681 64.3857 24.6164 64.2613 24.3581C64.137 24.0998 63.8878 23.8481 63.4444 23.7125C62.9984 23.5762 62.4094 23.5848 61.8086 23.8741C61.2078 24.1633 60.8337 24.6183 60.6621 25.0519C60.4915 25.4831 60.5328 25.8348 60.6572 26.0932C60.7816 26.3515 61.0307 26.6031 61.4742 26.7387C61.9202 26.8751 62.5091 26.8664 63.1099 26.5772C63.7107 26.2879 64.0848 25.833 64.2564 25.3993ZM67.8654 22.623C69.167 25.3267 67.8653 28.7272 64.845 30.1813C61.8246 31.6353 58.3547 30.5319 57.0531 27.8282C55.7515 25.1246 57.0532 21.724 60.0736 20.27C63.0939 18.8159 66.5638 19.9194 67.8654 22.623Z" fill="black" stroke="black"/>
<path d="M31.8732 60.4152L34.8002 55.1776L45.2754 61.0317L42.3484 66.2693L31.8732 60.4152Z" fill="black" stroke="black"/>
<path d="M31.8732 60.4152L34.8002 55.1776L45.2754 61.0317L42.3484 66.2693L31.8732 60.4152Z" fill="black" stroke="black"/>
<path d="M30.9788 54.71C30.8705 54.2591 30.6345 53.9951 30.3842 53.8552C30.134 53.7154 29.7854 53.6527 29.3447 53.7967C28.9013 53.9416 28.4245 54.2872 28.0992 54.8693C27.7739 55.4514 27.7293 56.0387 27.8383 56.4922C27.9466 56.9431 28.1826 57.2071 28.4329 57.347C28.6831 57.4868 29.0317 57.5495 29.4725 57.4055C29.9158 57.2607 30.3927 56.915 30.718 56.3329C31.0433 55.7508 31.0878 55.1635 30.9788 54.71ZM32.3356 50.3635C34.955 51.8273 35.845 55.358 34.2097 58.2842C32.5744 61.2104 29.1009 62.3025 26.4815 60.8387C23.8622 59.3749 22.9721 55.8442 24.6074 52.918C26.2427 49.9918 29.7162 48.8997 32.3356 50.3635Z" fill="black" stroke="black"/>
<path d="M135.371 67.4105L136.499 73.3036L124.712 75.5583L123.585 69.6652L135.371 67.4105Z" fill="black" stroke="black"/>
<path d="M135.371 67.4105L136.499 73.3036L124.712 75.5583L123.585 69.6652L135.371 67.4105Z" fill="black" stroke="black"/>
<path d="M139.726 71.2039C140.099 71.4795 140.449 71.5298 140.731 71.476C141.012 71.4221 141.319 71.2459 141.564 70.8521C141.811 70.4561 141.953 69.8847 141.828 69.2297C141.703 68.5748 141.359 68.0964 140.984 67.8193C140.611 67.5437 140.261 67.4933 139.979 67.5472C139.697 67.6011 139.39 67.7773 139.145 68.171C138.899 68.567 138.756 69.1385 138.882 69.7934C139.007 70.4484 139.35 70.9267 139.726 71.2039ZM141.482 75.4047C138.535 75.9685 135.583 73.8374 134.953 70.545C134.323 67.2525 136.28 64.1822 139.228 63.6184C142.175 63.0546 145.127 65.1857 145.757 68.4782C146.387 71.7706 144.429 74.8409 141.482 75.4047Z" fill="black" stroke="black"/>
<path d="M132.731 113.151L129.04 118.59L119.653 110.186L123.344 104.747L132.731 113.151Z" fill="black" stroke="black"/>
<path d="M132.731 113.151L129.04 118.59L119.653 110.186L123.344 104.747L132.731 113.151Z" fill="black" stroke="black"/>
<path d="M132.461 119.909C132.505 120.518 132.724 120.885 132.954 121.09C133.183 121.295 133.546 121.45 134.071 121.351C134.601 121.25 135.217 120.89 135.699 120.18C136.181 119.469 136.335 118.695 136.29 118.081C136.246 117.471 136.026 117.105 135.797 116.9C135.568 116.694 135.205 116.539 134.68 116.639C134.15 116.739 133.534 117.099 133.052 117.81C132.57 118.52 132.416 119.295 132.461 119.909ZM130.708 124.4C128.369 122.307 128.015 118.172 130.072 115.142C132.128 112.111 135.705 111.496 138.043 113.59C140.381 115.683 140.736 119.817 138.679 122.848C136.623 125.878 133.046 126.493 130.708 124.4Z" fill="black" stroke="black"/>
<path d="M79.8043 140.685L73.8069 140.509L74.1593 128.514L80.1567 128.691L79.8043 140.685Z" fill="black" stroke="black"/>
<path d="M79.8043 140.685L73.8069 140.509L74.1593 128.514L80.1567 128.691L79.8043 140.685Z" fill="black" stroke="black"/>
<path d="M75.1576 144.114C74.8078 144.419 74.6827 144.75 74.6743 145.037C74.6658 145.323 74.7713 145.661 75.1026 145.986C75.4359 146.312 75.9628 146.575 76.6293 146.595C77.2959 146.614 77.8373 146.383 78.1892 146.076C78.539 145.772 78.6641 145.441 78.6725 145.154C78.6809 144.868 78.5755 144.53 78.2441 144.205C77.9109 143.879 77.384 143.616 76.7174 143.596C76.0509 143.577 75.5095 143.808 75.1576 144.114ZM70.676 144.919C70.7641 141.92 73.4842 139.499 76.8349 139.598C80.1856 139.696 82.7589 142.272 82.6708 145.272C82.5827 148.271 79.8626 150.692 76.5119 150.593C73.1612 150.495 70.5879 147.919 70.676 144.919Z" fill="black" stroke="black"/>
<path d="M47.4951 121.849L45.4814 120.032L49.4709 115.703L51.4846 117.52L47.4951 121.849Z" fill="black" stroke="black"/>
<path d="M45.4814 120.032L49.4709 115.703L51.4846 117.52L47.4951 121.849L45.4814 120.032Z" fill="black" stroke="black"/>
<path d="M44.4553 125.052C45.0037 125.049 45.6992 124.826 46.2375 124.242C46.7759 123.658 46.9357 122.952 46.8886 122.412C46.8421 121.879 46.602 121.445 46.2862 121.16C45.9705 120.875 45.5119 120.678 44.9714 120.682C44.423 120.685 43.7275 120.907 43.1892 121.492C42.6508 122.076 42.4909 122.782 42.5381 123.322C42.5846 123.855 42.8247 124.289 43.1405 124.574C43.4562 124.859 43.9148 125.056 44.4553 125.052ZM42.5253 120.893C43.5025 119.832 45.2913 119.781 46.5286 120.897C47.7659 122.013 47.8786 123.781 46.9014 124.841C45.9242 125.902 44.1354 125.953 42.8981 124.837C41.6608 123.721 41.5481 121.953 42.5253 120.893Z" fill="black" stroke="black"/>
<path d="M129.594 55.9466L131.124 58.1862L126.228 61.4558L124.698 59.2161L129.594 55.9466Z" fill="black" stroke="black"/>
<path d="M131.124 58.1862L126.228 61.4558L124.698 59.2161L129.594 55.9466L131.124 58.1862Z" fill="black" stroke="black"/>
<path d="M133.302 53.5486C132.768 53.4228 132.04 53.4754 131.379 53.9166C130.719 54.3578 130.397 55.0061 130.316 55.5427C130.235 56.0716 130.367 56.5497 130.607 56.9009C130.847 57.2521 131.246 57.5511 131.772 57.6751C132.306 57.8009 133.034 57.7483 133.695 57.3071C134.356 56.8659 134.677 56.2175 134.758 55.6809C134.839 55.1521 134.707 54.674 134.467 54.3228C134.227 53.9716 133.828 53.6725 133.302 53.5486ZM134.199 58.0454C133 58.8463 131.249 58.4757 130.309 57.0995C129.369 55.7233 129.676 53.9791 130.875 53.1782C132.074 52.3774 133.825 52.748 134.765 54.1242C135.705 55.5003 135.399 57.2446 134.199 58.0454Z" fill="black" stroke="black"/>
<path d="M101.889 27.0592L107.501 29.1815L103.257 40.4057L97.6446 38.2834L101.889 27.0592Z" fill="black" stroke="black"/>
<path d="M101.889 27.0592L107.501 29.1815L103.257 40.4057L97.6446 38.2834L101.889 27.0592Z" fill="black" stroke="black"/>
<path d="M107.4 25.3329C107.83 25.1593 108.056 24.8869 108.158 24.6188C108.259 24.3506 108.27 23.9966 108.062 23.5819C107.854 23.1648 107.441 22.7442 106.818 22.5083C106.194 22.2724 105.606 22.315 105.174 22.4897C104.744 22.6633 104.518 22.9357 104.416 23.2039C104.315 23.472 104.304 23.826 104.512 24.2407C104.721 24.6578 105.133 25.0785 105.756 25.3143C106.38 25.5502 106.968 25.5076 107.4 25.3329ZM111.899 26.0337C110.838 28.8403 107.477 30.2415 104.342 29.0557C101.206 27.87 99.6136 24.5956 100.675 21.789C101.736 18.9823 105.097 17.5811 108.233 18.7669C111.368 19.9526 112.961 23.227 111.899 26.0337Z" fill="black" stroke="black"/>
<path d="M33.8655 119.172L28.4964 111.024L45.8638 98.7068L51.2329 106.855L33.8655 119.172Z" fill="black" stroke="black"/>
<path d="M45.8638 98.7068L51.2329 106.855L33.8655 119.172L28.4964 111.024L45.8638 98.7068Z" fill="black" stroke="black"/>
<path d="M30.566 115.534C28.6322 112.6 24.8422 111.927 22.1347 113.847C19.4272 115.767 18.6561 119.675 20.5899 122.61C22.5237 125.544 26.3138 126.218 29.0212 124.297C31.7287 122.377 32.4999 118.469 30.566 115.534ZM19.9338 110.507C24.4854 107.279 30.7081 108.485 33.8287 113.22C36.9494 117.956 35.7738 124.409 31.2222 127.637C26.6705 130.866 20.4479 129.66 17.3272 124.924C14.2065 120.188 15.3821 113.735 19.9338 110.507Z" fill="black" stroke="black"/>
<path d="M84.9671 89.175C83.9945 87.6992 82.0607 87.4062 80.6739 88.3898C79.287 89.3734 78.8482 91.3492 79.8207 92.825C80.7932 94.3008 82.727 94.5938 84.1139 93.6102C85.5007 92.6266 85.9396 90.6508 84.9671 89.175ZM79.9694 87.3207C82.0136 85.8709 84.7463 86.3629 86.0795 88.386C87.4127 90.4092 86.8626 93.2294 84.8183 94.6793C82.7741 96.1291 80.0414 95.6371 78.7082 93.614C77.3751 91.5908 77.9251 88.7706 79.9694 87.3207Z" fill="black" stroke="black"/>
<path d="M118.234 133.988L110.113 139.399L97.7075 122.094L105.828 116.684L118.234 133.988Z" fill="black" stroke="black"/>
<path d="M97.7075 122.094L105.828 116.684L118.234 133.988L110.113 139.399L97.7075 122.094Z" fill="black" stroke="black"/>
<path d="M114.613 137.306C111.688 139.255 111.034 143.048 112.968 145.746C114.902 148.443 118.814 149.195 121.739 147.246C124.664 145.297 125.318 141.504 123.384 138.806C121.45 136.108 117.538 135.357 114.613 137.306ZM109.639 147.964C106.388 143.429 107.562 137.2 112.282 134.055C117.002 130.91 123.461 132.053 126.712 136.588C129.964 141.123 128.789 147.352 124.07 150.497C119.35 153.642 112.891 152.499 109.639 147.964Z" fill="black" stroke="black"/>
<path d="M146.761 90.4717L144.458 99.9539L123.608 95.6407L125.91 86.1585L146.761 90.4717Z" fill="black" stroke="black"/>
<path d="M123.608 95.6407L125.91 86.1585L146.761 90.4717L144.458 99.9539L123.608 95.6407Z" fill="black" stroke="black"/>
<path d="M146.348 95.3655C145.518 98.7808 147.609 102.013 150.859 102.685C154.11 103.358 157.495 101.258 158.325 97.8431C159.154 94.4278 157.064 91.1957 153.813 90.5233C150.563 89.8509 147.177 91.9503 146.348 95.3655ZM149.916 106.572C144.451 105.442 141.092 100.067 142.431 94.5552C143.769 89.0439 149.292 85.5058 154.757 86.6363C160.222 87.7667 163.58 93.1421 162.242 98.6534C160.903 104.165 155.38 107.703 149.916 106.572Z" fill="black" stroke="black"/>
<path d="M39.9714 37.8333L47.3427 32.6697L58.8174 49.0506L51.446 54.2142L39.9714 37.8333Z" fill="black" stroke="black"/>
<path d="M51.446 54.2142L39.9714 37.8333L47.3427 32.6697L58.8174 49.0506L51.446 54.2142Z" fill="black" stroke="black"/>
<path d="M43.0833 34.4325C45.5712 32.6897 46.1752 29.2601 44.4325 26.7722C42.6897 24.2843 39.2601 23.6803 36.7722 25.423C34.2843 27.1658 33.6803 30.5954 35.423 33.0833C37.1658 35.5712 40.5954 36.1752 43.0833 34.4325ZM47.7087 24.4773C50.7189 28.7746 49.6755 34.6984 45.3782 37.7087C41.081 40.7189 35.1571 39.6755 32.1469 35.3782C29.1366 31.081 30.18 25.1571 34.4773 22.1469C38.7746 19.1366 44.6984 20.18 47.7087 24.4773Z" fill="black" stroke="black"/>
<path d="M123.378 28.8494L130.684 34.1056L119.004 50.3404L111.698 45.0842L123.378 28.8494Z" fill="black" stroke="black"/>
<path d="M111.698 45.0842L123.378 28.8494L130.684 34.1056L119.004 50.3404L111.698 45.0842Z" fill="black" stroke="black"/>
<path d="M125.802 23.9658C124.567 26.7411 125.816 29.9918 128.592 31.2264C131.367 32.461 134.618 31.212 135.852 28.4366C137.087 25.6613 135.838 22.4106 133.063 21.176C130.287 19.9414 127.037 21.1904 125.802 23.9658ZM126.966 34.8811C122.172 32.7486 120.015 27.1338 122.147 22.34C124.28 17.5462 129.895 15.3888 134.688 17.5213C139.482 19.6538 141.64 25.2686 139.507 30.0624C137.375 34.8562 131.76 37.0136 126.966 34.8811Z" fill="black" stroke="black"/>
<path d="M65.7531 72.8242C64.8341 74.8901 65.7686 77.3097 67.8368 78.2297C69.9051 79.1498 72.3279 78.2237 73.2469 76.1578C74.1659 74.0918 73.2315 71.6723 71.1632 70.7522C69.0949 69.8321 66.6721 70.7583 65.7531 72.8242ZM66.7833 80.598C63.4005 79.0932 61.8769 75.1388 63.3768 71.7671C64.8767 68.3953 68.8338 66.8791 72.2167 68.3839C75.5995 69.8888 77.1232 73.8431 75.6233 77.2149C74.1234 80.5866 70.1662 82.1028 66.7833 80.598Z" fill="black" stroke="black"/>
<path d="M57.235 141.579L49.2147 137.495L58.2889 119.672L66.3092 123.756L57.235 141.579Z" fill="black" stroke="black"/>
<path d="M66.3092 123.756L57.235 141.579L49.2147 137.495L58.2889 119.672L66.3092 123.756Z" fill="black" stroke="black"/>
<path d="M55.5826 146.774C56.3805 143.843 54.6514 140.821 51.7205 140.023C48.7896 139.225 45.7668 140.954 44.9689 143.885C44.1709 146.816 45.9 149.838 48.8309 150.636C51.7618 151.434 54.7846 149.705 55.5826 146.774ZM52.7713 136.163C57.8337 137.541 60.8203 142.763 59.4421 147.825C58.0638 152.888 52.8426 155.874 47.7801 154.496C42.7177 153.118 39.7311 147.896 41.1094 142.834C42.4876 137.772 47.7088 134.785 52.7713 136.163Z" fill="black" stroke="black"/>
</svg>
